<svg version="1" xmlns="http://www.w3.org/2000/svg" width="682.667" height="682.667" viewBox="0 0 512.000000 512.000000"><path d="M0 256v256h512V0H0v256zM287 60.4c16.3 2.1 25.9 4.2 38.6 8.5 15.8 5.3 25.2 10.9 35.4 21.1 9.7 9.6 13.5 16.1 17.6 29.5 2.5 8.3 2.8 10.4 2.8 26 0 14.5-.3 18.3-2.2 26-4.6 17.7-16.6 37.9-28.4 47.6-11.2 9.1-25.5 16.6-37.8 19.8-3.8.9-7.3 2-7.7 2.4-.3.4 3.4.7 8.3.7 21.2 0 43.5 6.5 59.4 17.3 10.6 7.2 21.5 19.8 27.4 31.4 12.8 25.5 11.6 68.3-2.6 96.7-7.1 14.3-22.1 30.4-36.1 38.9-13.1 8-32.1 15.6-47.7 19.1-22.4 5.2-54.1 7.3-82 5.6-10.7-.7-45.5-1.5-77.2-1.7l-57.8-.5V421.5l21.3-3 21.2-3 .3-159.6.2-159.7-2.2-.5c-1.3-.3-10.7-1.8-21-3.3L98 89.6V62h40.2c34.5 0 63.7-1.1 93.3-3.4 9.6-.8 44.1.4 55.5 1.8z"/><path d="M209.5 88.5c-6 .7-11.1 1.3-11.2 1.4-.2.1-.3 31.6-.3 70v70l4.3.6c2.4.4 18.5.5 35.8.3 28-.4 32.2-.7 39-2.6 22.5-6.1 36.9-20.8 43-43.9 3-11.3 3.8-36.5 1.4-48.8-5.1-27.5-21.3-41.9-52.9-47-11.1-1.8-43.2-1.8-59.1 0zM198 340.5v77.4l5.3 1.6c2.9.9 12.7 2 22.2 2.6 38 2.3 66.9-2 86.5-12.8 9.4-5.2 20.6-16.9 25.2-26.3 11.8-24.2 11.4-63.9-.8-87.1-4.8-9.1-13.6-17.8-23.2-22.7-17.1-8.8-27.4-10.2-76.4-10.2H198v77.5z"/></svg>