<svg width="360" height="151" viewBox="0 0 360 151" fill="none" xmlns="http://www.w3.org/2000/svg">
<g clip-path="url(#clip0_231_316)">
<path d="M92.2583 109.472C92.2583 109.723 92.2583 109.975 92.2583 110.209C92.2545 110.27 92.2545 110.332 92.2583 110.393V110.67C94.015 108.903 95.6204 106.993 97.0575 104.958C101.537 98.389 104.143 90.7247 104.596 82.7872C104.596 81.9496 104.671 81.0534 104.671 80.1572C104.554 68.7327 100.13 57.7733 92.2834 49.4688C92.3277 49.9057 92.35 50.3446 92.3504 50.7837C92.3504 50.7837 92.3504 50.7837 92.3504 50.8424C92.3504 51.1104 92.3504 51.3784 92.3085 51.6799C92.3127 51.7077 92.3127 51.7359 92.3085 51.7637C92.1652 53.3742 91.6006 54.9185 90.6715 56.2417C89.7423 57.5649 88.4813 58.6203 87.0151 59.3018C86.8476 59.3855 86.6885 59.4609 86.5377 59.5196C83.7737 60.7089 48.0096 75.827 37.7578 80.1739L58.4457 88.9349L86.5209 100.82C88.1006 101.477 89.4736 102.548 90.4952 103.921C91.5168 105.293 92.149 106.916 92.3253 108.618C92.338 108.872 92.338 109.126 92.3253 109.38C92.3253 109.38 92.3253 109.439 92.3253 109.472H92.2583Z" fill="white"/>
<path d="M77.2488 39.3774L63.6551 33.6735C44.9271 25.792 13.5853 12.5752 8.80283 10.5316C8.01045 10.1848 7.15506 10.0052 6.29013 10.0039C5.12564 10.0071 3.98848 10.357 3.02362 11.009C2.1143 11.6055 1.36384 12.4144 0.837058 13.3659C0.310271 14.3173 0.0229828 15.3826 0 16.4699V60.1993C0.0498977 61.4924 0.484688 62.7412 1.24868 63.7857C2.01267 64.8303 3.07108 65.6229 4.28834 66.0622C5.60332 66.5899 18.8452 72.1932 34.4407 78.7765L57.2896 69.1026C72.3658 62.7036 84.3346 57.6447 85.4151 57.2008C85.6412 57.1003 85.8422 56.983 86.0516 56.8741C86.9201 56.3833 87.6808 55.7224 88.2881 54.9309C88.8954 54.1394 89.3369 53.2335 89.5861 52.2675C89.5861 52.2173 89.5861 52.167 89.5861 52.1168C89.5861 52.0665 89.5861 51.8487 89.6448 51.7147C89.6831 51.437 89.7054 51.1574 89.7118 50.8772C89.7557 49.7757 89.5272 48.6804 89.0465 47.6884C88.5659 46.6963 87.8479 45.8382 86.9562 45.1901L86.462 44.7462V44.6959C83.5966 42.5885 80.5067 40.8048 77.2488 39.3774Z" fill="white"/>
<path d="M3.02362 149.282C3.8662 149.851 4.84022 150.195 5.85318 150.281C6.86613 150.368 7.88437 150.194 8.8112 149.776C13.1582 147.925 39.0725 137.003 58.0015 129.03L77.2655 120.914C80.4786 119.509 83.5264 117.754 86.3531 115.679L86.4871 115.553L87.0232 115.067L87.4587 114.682C88.2005 114.047 88.7913 113.254 89.1883 112.361C89.5852 111.469 89.7784 110.499 89.7536 109.523C89.7536 109.523 89.7536 109.523 89.7536 109.464C89.7536 109.405 89.7536 109.389 89.7536 109.347C89.7536 109.154 89.7536 108.97 89.7536 108.786C89.7496 108.766 89.7496 108.746 89.7536 108.727C89.5667 107.509 89.0768 106.358 88.329 105.379C87.5812 104.4 86.5993 103.624 85.4737 103.124C82.6259 102.001 39.7342 83.7676 34.3821 81.5312C18.8452 88.1061 5.60332 93.7095 4.28834 94.2371C3.07108 94.6764 2.01267 95.4691 1.24868 96.5136C0.484688 97.5582 0.0498977 98.807 0 100.1L0 143.829C0.0278555 144.915 0.31729 145.977 0.843701 146.926C1.37011 147.876 2.11794 148.684 3.02362 149.282V149.282Z" fill="white"/>
<path d="M203.436 55.2916C203.431 55.6386 203.354 55.9807 203.21 56.2964C203.066 56.6121 202.858 56.8945 202.599 57.1259C202.394 57.3395 202.148 57.5096 201.876 57.6262C201.604 57.7428 201.312 57.8033 201.016 57.8043H180.177C180.038 57.7848 179.897 57.7977 179.764 57.8422C179.631 57.8866 179.511 57.9613 179.411 58.0604C179.312 58.1595 179.238 58.2802 179.193 58.4131C179.149 58.546 179.136 58.6874 179.155 58.8261V107.991C179.155 113.167 180.244 116.909 182.422 119.215C184.734 121.526 188.338 122.682 193.235 122.682H199.341C199.958 122.774 200.529 123.061 200.971 123.501C201.412 123.941 201.701 124.511 201.795 125.128V140.43C201.795 141.929 200.957 142.817 199.349 143.085L188.737 143.286C177.988 143.286 169.964 141.452 164.665 137.784C159.366 134.115 156.644 127.177 156.499 116.97V58.7926C156.513 58.658 156.496 58.5222 156.45 58.395C156.404 58.2678 156.33 58.1526 156.233 58.0578C156.137 57.9629 156.02 57.891 155.892 57.8471C155.765 57.8032 155.628 57.7886 155.494 57.8043H143.86C143.198 57.8112 142.552 57.5959 142.026 57.1929C141.623 56.6669 141.408 56.0212 141.415 55.3586V41.053C141.394 40.7465 141.438 40.4392 141.543 40.1508C141.649 39.8623 141.813 39.599 142.026 39.3778C142.257 39.1191 142.54 38.9111 142.855 38.767C143.171 38.6228 143.513 38.5456 143.86 38.5403H155.494C155.633 38.5601 155.774 38.5474 155.906 38.5029C156.039 38.4585 156.159 38.3836 156.258 38.2843C156.356 38.185 156.43 38.064 156.474 37.931C156.517 37.798 156.529 37.6567 156.508 37.5184V13.7064C156.489 13.4002 156.534 13.0934 156.639 12.8053C156.744 12.5171 156.908 12.2536 157.119 12.0313C157.35 11.7726 157.633 11.5646 157.948 11.4204C158.264 11.2763 158.606 11.1991 158.953 11.1937H176.726C177.053 11.1817 177.378 11.2521 177.671 11.3984C177.964 11.5448 178.215 11.7624 178.402 12.0313C178.672 12.2168 178.89 12.4678 179.036 12.7607C179.183 13.0537 179.253 13.3791 179.239 13.7064V37.5771C179.219 37.7155 179.232 37.8567 179.276 37.9893C179.321 38.1219 179.396 38.2423 179.495 38.3408C179.594 38.4393 179.715 38.5132 179.848 38.5566C179.981 38.5999 180.123 38.6115 180.261 38.5905H201.016C201.336 38.5855 201.652 38.6592 201.937 38.8053C202.222 38.9514 202.466 39.1652 202.649 39.4281C202.919 39.6141 203.137 39.8652 203.283 40.1581C203.429 40.4509 203.499 40.776 203.487 41.1032L203.436 55.2916Z" fill="white"/>
<path d="M319.456 38.3803C319.775 38.3737 320.091 38.4468 320.375 38.5931C320.659 38.7393 320.901 38.9541 321.081 39.2179C321.344 39.4006 321.558 39.6451 321.704 39.9299C321.85 40.2147 321.924 40.5311 321.919 40.8511V56.9659C321.913 57.3129 321.836 57.6551 321.692 57.9708C321.548 58.2865 321.34 58.5689 321.081 58.8002C320.865 59.0079 320.608 59.1693 320.328 59.2744C320.047 59.3796 319.747 59.4262 319.448 59.4116H299.254C299.115 59.3921 298.974 59.405 298.841 59.4495C298.708 59.4939 298.588 59.5687 298.488 59.6677C298.389 59.7668 298.315 59.8875 298.27 60.0204C298.226 60.1533 298.213 60.2947 298.232 60.4334V140.413C298.227 140.76 298.15 141.102 298.006 141.418C297.861 141.733 297.654 142.016 297.395 142.247C297.179 142.455 296.922 142.616 296.641 142.721C296.36 142.826 296.061 142.873 295.762 142.858H277.025C276.693 142.906 276.354 142.875 276.035 142.769C275.716 142.663 275.426 142.484 275.189 142.247C274.951 142.01 274.771 141.721 274.664 141.403C274.557 141.084 274.525 140.745 274.571 140.413V60.4167C274.591 60.2779 274.578 60.1366 274.533 60.0037C274.489 59.8708 274.414 59.7501 274.315 59.651C274.216 59.5519 274.095 59.4772 273.962 59.4327C273.829 59.3883 273.688 59.3753 273.549 59.3949H260.902C260.571 59.4416 260.234 59.4111 259.916 59.306C259.599 59.2008 259.311 59.0238 259.073 58.7886C258.835 58.5535 258.655 58.2667 258.547 57.9505C258.439 57.6343 258.405 57.2974 258.448 56.9659V40.8344C258.43 40.5282 258.474 40.2214 258.579 39.9332C258.685 39.6451 258.848 39.3816 259.059 39.1593C259.292 38.8995 259.575 38.6909 259.893 38.5467C260.21 38.4025 260.554 38.3259 260.902 38.3217H273.549C273.688 38.3427 273.829 38.3311 273.962 38.2877C274.095 38.2444 274.216 38.1705 274.315 38.072C274.414 37.9735 274.489 37.8531 274.534 37.7205C274.578 37.5879 274.591 37.4467 274.571 37.3082V33.6899C274.571 24.8508 275.727 18.0498 278.039 13.2868C279.158 10.8822 280.745 8.72421 282.706 6.93834C284.668 5.15248 286.964 3.7744 289.463 2.88424C294.768 0.840581 302.247 -0.117037 311.901 0.01139H319.046C319.365 0.00551269 319.68 0.0789688 319.964 0.225161C320.248 0.371353 320.49 0.585702 320.671 0.848957C320.94 1.03555 321.157 1.28676 321.304 1.57948C321.45 1.87221 321.52 2.19704 321.508 2.52409V16.7627C321.503 17.1097 321.426 17.4519 321.282 17.7676C321.137 18.0833 320.929 18.3657 320.671 18.597C320.454 18.8047 320.198 18.9661 319.917 19.0712C319.636 19.1764 319.337 19.223 319.038 19.2084H313.727C307.881 19.2084 303.802 20.3643 301.49 22.6759C299.313 24.9932 298.224 29.2118 298.224 35.3316V37.3669C298.204 37.5056 298.217 37.647 298.262 37.7799C298.306 37.9128 298.381 38.0335 298.48 38.1326C298.579 38.2317 298.7 38.3064 298.833 38.3508C298.966 38.3953 299.107 38.4082 299.246 38.3887L319.456 38.3803Z" fill="white"/>
<path d="M338.427 142.842C338.094 142.89 337.754 142.859 337.435 142.753C337.116 142.646 336.826 142.467 336.588 142.229C336.351 141.99 336.172 141.7 336.067 141.38C335.961 141.061 335.932 140.721 335.981 140.388V40.8264C335.967 40.5269 336.013 40.2275 336.118 39.9467C336.223 39.6658 336.385 39.4094 336.593 39.1931C336.824 38.9344 337.106 38.7264 337.422 38.5823C337.738 38.4381 338.08 38.3609 338.427 38.3556H357.197C357.524 38.3404 357.85 38.4094 358.143 38.556C358.437 38.7026 358.687 38.922 358.872 39.1931C359.135 39.3758 359.349 39.6203 359.495 39.9052C359.641 40.19 359.714 40.5064 359.709 40.8264V140.388C359.704 140.735 359.627 141.077 359.483 141.393C359.339 141.708 359.131 141.991 358.872 142.222C358.656 142.43 358.399 142.591 358.118 142.696C357.837 142.802 357.538 142.848 357.239 142.834L338.427 142.842Z" fill="white"/>
<path d="M220.733 142.849C220.4 142.895 220.061 142.863 219.742 142.756C219.423 142.649 219.134 142.469 218.896 142.231C218.658 141.994 218.479 141.704 218.372 141.386C218.265 141.067 218.233 140.728 218.279 140.395V40.8333C218.258 40.5269 218.302 40.2196 218.407 39.9311C218.513 39.6426 218.677 39.3794 218.89 39.1582C219.121 38.8995 219.404 38.6915 219.719 38.5473C220.035 38.4032 220.377 38.326 220.724 38.3206H239.494C239.814 38.3149 240.131 38.3883 240.416 38.5344C240.701 38.6805 240.945 38.8948 241.127 39.1582C241.397 39.3442 241.615 39.5953 241.761 39.8882C241.908 40.181 241.978 40.5062 241.965 40.8333V140.395C241.96 140.742 241.882 141.084 241.738 141.4C241.594 141.715 241.386 141.998 241.127 142.229C240.911 142.437 240.655 142.598 240.374 142.703C240.093 142.809 239.794 142.855 239.494 142.841L220.733 142.849Z" fill="white"/>
</g>
<defs>
<clipPath id="clip0_231_316">
<rect width="360" height="150.448" fill="white"/>
</clipPath>
</defs>
</svg>
