<?xml version="1.0" encoding="UTF-8"?>
<svg width="113px" height="52px" viewBox="0 0 113 52" version="1.1" xmlns="http://www.w3.org/2000/svg" xmlns:xlink="http://www.w3.org/1999/xlink">
    <title>Artboard</title>
    <g id="Artboard" stroke="none" stroke-width="1" fill="none" fill-rule="evenodd">
        <g id="Group-14" transform="translate(0.000000, 0.000000)" fill="#FFFFFF">
            <g id="wrf" transform="translate(48.368000, 0.360000)">
                <path d="M13.824,11.328 L11.456,17.984 L11.072,19.264 L10.88,19.264 L10.496,18.112 L8.32,11.328 L7.488,11.328 L5.312,18.112 L4.928,19.264 L4.8,19.264 L4.416,17.984 L2.048,11.328 L0,11.328 L4.48,23.04 L5.376,23.04 L7.552,16.32 L7.872,15.168 L8,15.168 L8.32,16.32 L10.432,23.04 L11.392,23.04 L15.872,11.328 L13.824,11.328 Z M17.984,18.944 C19.2,18.944 19.712,19.264 19.968,19.456 L20.096,19.456 L20.096,19.136 C20.096,18.112 19.52,17.664 18.112,17.664 C17.024,17.664 16.192,18.176 16.192,18.176 L15.616,16.768 C15.616,16.768 16.64,16.128 18.432,16.128 C20.864,16.128 21.888,17.408 21.888,19.328 L21.888,23.04 L20.544,23.04 L20.352,22.272 L20.224,22.272 C20.032,22.592 19.456,23.168 17.856,23.168 C16.064,23.168 15.04,22.208 15.04,21.056 C15.04,19.84 16.064,18.944 17.984,18.944 M18.368,21.888 C19.392,21.888 20.032,21.312 20.032,20.864 C20.032,20.352 19.392,19.968 18.368,19.968 C17.408,19.968 16.896,20.352 16.896,20.928 C16.896,21.504 17.344,21.888 18.368,21.888 M24.256,14.272 L26.176,14.272 L26.176,16.32 L28.544,16.32 L28.544,17.856 L26.176,17.856 L26.176,20.288 C26.176,21.248 26.56,21.632 27.328,21.632 C27.84,21.632 28.224,21.376 28.224,21.376 L28.864,22.656 C28.864,22.656 28.288,23.232 27.072,23.232 C25.344,23.232 24.32,22.208 24.32,20.352 L24.32,17.856 L23.04,17.856 L23.04,16.32 L24.32,16.32 L24.256,14.272 Z M33.536,23.232 C31.168,23.232 29.632,21.696 29.632,19.712 C29.632,17.664 31.104,16.192 33.28,16.192 C35.392,16.192 36.672,17.6 36.672,19.648 L36.672,20.096 L31.552,20.096 C31.68,21.248 32.576,21.824 33.664,21.824 C34.88,21.824 35.52,21.312 35.52,21.312 L36.16,22.528 C36.096,22.464 35.264,23.232 33.536,23.232 M31.552,18.944 L34.816,18.944 C34.688,18.176 34.112,17.536 33.216,17.536 C32.384,17.536 31.744,18.048 31.552,18.944 M41.536,17.92 C40.768,17.92 40.064,18.496 40.064,19.328 L40.064,23.04 L38.144,23.04 L38.144,16.256 L39.36,16.256 L39.616,17.216 L39.68,17.216 C40.064,16.704 40.64,16.192 41.664,16.192 C42.624,16.192 43.072,16.576 43.072,16.576 L42.368,18.112 C42.432,18.176 42.112,17.92 41.536,17.92" id="Shape"></path>
                <path d="M13.824,11.328 L11.456,17.984 L11.072,19.264 L10.88,19.264 L10.496,18.112 L8.32,11.328 L7.488,11.328 L5.312,18.112 L4.928,19.264 L4.8,19.264 L4.416,17.984 L2.048,11.328 L0,11.328 L4.48,23.04 L5.376,23.04 L7.552,16.32 L7.872,15.168 L8,15.168 L8.32,16.32 L10.432,23.04 L11.392,23.04 L15.872,11.328 L13.824,11.328 Z M17.984,18.944 C19.2,18.944 19.712,19.264 19.968,19.456 L20.096,19.456 L20.096,19.136 C20.096,18.112 19.52,17.664 18.112,17.664 C17.024,17.664 16.192,18.176 16.192,18.176 L15.616,16.768 C15.616,16.768 16.64,16.128 18.432,16.128 C20.864,16.128 21.888,17.408 21.888,19.328 L21.888,23.04 L20.544,23.04 L20.352,22.272 L20.224,22.272 C20.032,22.592 19.456,23.168 17.856,23.168 C16.064,23.168 15.04,22.208 15.04,21.056 C15.04,19.84 16.064,18.944 17.984,18.944 M18.368,21.888 C19.392,21.888 20.032,21.312 20.032,20.864 C20.032,20.352 19.392,19.968 18.368,19.968 C17.408,19.968 16.896,20.352 16.896,20.928 C16.896,21.504 17.344,21.888 18.368,21.888 M24.256,14.272 L26.176,14.272 L26.176,16.32 L28.544,16.32 L28.544,17.856 L26.176,17.856 L26.176,20.288 C26.176,21.248 26.56,21.632 27.328,21.632 C27.84,21.632 28.224,21.376 28.224,21.376 L28.864,22.656 C28.864,22.656 28.288,23.232 27.072,23.232 C25.344,23.232 24.32,22.208 24.32,20.352 L24.32,17.856 L23.04,17.856 L23.04,16.32 L24.32,16.32 L24.256,14.272 Z M33.536,23.232 C31.168,23.232 29.632,21.696 29.632,19.712 C29.632,17.664 31.104,16.192 33.28,16.192 C35.392,16.192 36.672,17.6 36.672,19.648 L36.672,20.096 L31.552,20.096 C31.68,21.248 32.576,21.824 33.664,21.824 C34.88,21.824 35.52,21.312 35.52,21.312 L36.16,22.528 C36.096,22.464 35.264,23.232 33.536,23.232 M31.552,18.944 L34.816,18.944 C34.688,18.176 34.112,17.536 33.216,17.536 C32.384,17.536 31.744,18.048 31.552,18.944 M41.536,17.92 C40.768,17.92 40.064,18.496 40.064,19.328 L40.064,23.04 L38.144,23.04 L38.144,16.256 L39.36,16.256 L39.616,17.216 L39.68,17.216 C40.064,16.704 40.64,16.192 41.664,16.192 C42.624,16.192 43.072,16.576 43.072,16.576 L42.368,18.112 C42.432,18.176 42.112,17.92 41.536,17.92 M6.016,26.752 C8.96,26.752 10.752,28.16 10.752,30.72 C10.752,32.576 9.792,33.792 8.32,34.368 L8.32,34.496 L11.2,38.208 L11.2,38.464 L9.024,38.464 L6.144,34.752 L2.816,34.752 L2.816,38.464 L0.896,38.464 L0.896,26.752 L6.016,26.752 Z M6.016,28.48 L2.944,28.48 L2.944,33.088 L6.144,33.088 C7.744,33.088 8.832,32.384 8.832,30.784 C8.768,29.248 7.68,28.48 6.016,28.48 L6.016,28.48 Z M15.744,38.656 C13.376,38.656 11.84,37.12 11.84,35.136 C11.84,33.088 13.312,31.616 15.488,31.616 C17.6,31.616 18.88,33.024 18.88,35.072 L18.88,35.52 L13.76,35.52 C13.888,36.672 14.784,37.248 15.872,37.248 C17.088,37.248 17.728,36.736 17.728,36.736 L18.368,37.952 C18.368,37.888 17.536,38.656 15.744,38.656 M13.76,34.368 L17.024,34.368 C16.896,33.6 16.32,32.96 15.424,32.96 C14.592,32.96 13.952,33.472 13.76,34.368 M22.912,37.184 C23.744,37.184 24.192,36.928 24.192,36.48 C24.192,35.328 20.032,35.968 20.032,33.6 C20.032,32.448 20.928,31.552 23.04,31.552 C25.024,31.552 26.048,32.128 26.048,32.128 L25.472,33.536 C25.472,33.536 24.704,32.96 23.296,32.96 C22.528,32.96 22.08,33.152 22.08,33.6 C22.08,34.688 26.24,34.048 26.24,36.48 C26.24,37.632 25.28,38.592 23.104,38.592 C20.992,38.592 20.032,37.824 20.032,37.824 L20.608,36.544 C20.544,36.544 21.632,37.184 22.912,37.184 M31.296,38.656 C28.928,38.656 27.392,37.12 27.392,35.136 C27.392,33.088 28.864,31.616 31.04,31.616 C33.152,31.616 34.432,33.024 34.432,35.072 L34.432,35.52 L29.312,35.52 C29.44,36.672 30.336,37.248 31.424,37.248 C32.64,37.248 33.28,36.736 33.28,36.736 L33.92,37.952 C33.856,37.888 33.024,38.656 31.296,38.656 M29.312,34.368 L32.576,34.368 C32.448,33.6 31.872,32.96 30.976,32.96 C30.08,32.96 29.504,33.472 29.312,34.368 M38.336,34.432 C39.552,34.432 40.064,34.752 40.32,34.944 L40.448,34.944 L40.448,34.624 C40.448,33.6 39.872,33.152 38.464,33.152 C37.376,33.152 36.544,33.664 36.544,33.664 L35.968,32.256 C35.968,32.256 36.992,31.616 38.784,31.616 C41.216,31.616 42.24,32.896 42.24,34.816 L42.24,38.528 L40.896,38.528 L40.704,37.76 L40.576,37.76 C40.384,38.08 39.808,38.656 38.208,38.656 C36.416,38.656 35.392,37.696 35.392,36.544 C35.392,35.264 36.416,34.432 38.336,34.432 M38.656,37.376 C39.68,37.376 40.32,36.8 40.32,36.352 C40.32,35.84 39.68,35.456 38.656,35.456 C37.696,35.456 37.184,35.84 37.184,36.416 C37.248,36.928 37.696,37.376 38.656,37.376 M47.552,33.344 C46.784,33.344 46.08,33.92 46.08,34.752 L46.08,38.464 L44.16,38.464 L44.16,31.68 L45.376,31.68 L45.632,32.64 L45.696,32.64 C46.016,32.128 46.656,31.616 47.68,31.616 C48.64,31.616 49.088,32 49.088,32 L48.384,33.536 C48.448,33.6 48.128,33.344 47.552,33.344 M49.536,35.072 C49.536,33.024 51.072,31.552 53.376,31.552 C54.848,31.552 55.616,32.128 55.616,32.128 L55.04,33.536 C55.04,33.536 54.464,33.152 53.568,33.152 C52.416,33.152 51.52,33.92 51.52,35.136 C51.52,36.288 52.416,37.056 53.568,37.056 C54.464,37.056 55.04,36.672 55.04,36.672 L55.552,38.08 C55.552,38.08 54.848,38.656 53.376,38.656 C51.072,38.592 49.536,37.12 49.536,35.072 M58.944,25.408 L58.944,32.32 L59.008,32.32 C59.392,31.936 59.968,31.552 61.12,31.552 C62.912,31.552 64.064,32.704 64.064,34.56 L64.064,38.464 L62.144,38.464 L62.144,34.816 C62.144,33.856 61.568,33.152 60.608,33.152 C59.584,33.152 58.944,33.856 58.944,34.56 L58.944,38.464 L57.024,38.464 L57.024,25.408 L58.944,25.408 L58.944,25.408 Z M5.12,45.696 L5.12,46.336 L1.664,46.336 L1.664,48.256 L4.736,48.256 L4.736,48.896 L1.664,48.896 L1.664,51.392 L1.024,51.392 L1.024,45.76 L5.12,45.696 L5.12,45.696 Z M6.72,48.576 C6.72,46.912 7.872,45.632 9.664,45.632 C11.456,45.632 12.608,46.912 12.608,48.576 C12.608,50.24 11.456,51.52 9.664,51.52 C7.872,51.52 6.72,50.176 6.72,48.576 M11.904,48.576 C11.904,47.296 11.008,46.208 9.664,46.208 C8.256,46.208 7.424,47.232 7.424,48.576 C7.424,49.856 8.32,50.88 9.664,50.88 C11.008,50.88 11.904,49.856 11.904,48.576 M14.656,49.024 L14.656,45.76 L15.296,45.76 L15.296,49.024 C15.296,50.112 15.872,50.88 17.024,50.88 C18.176,50.88 18.752,50.112 18.752,49.024 L18.752,45.76 L19.392,45.76 L19.392,49.024 C19.392,50.496 18.56,51.52 17.024,51.52 C15.552,51.52 14.656,50.496 14.656,49.024 M26.624,51.392 L22.528,47.104 L22.528,51.392 L21.888,51.392 L21.888,45.76 L22.08,45.76 L26.176,49.984 L26.176,45.76 L26.816,45.76 L26.816,51.392 L26.624,51.392 Z M31.296,51.392 L29.312,51.392 L29.312,45.76 L31.296,45.76 C33.088,45.76 34.304,46.848 34.304,48.576 C34.304,50.304 33.088,51.392 31.296,51.392 L31.296,51.392 Z M30.016,50.752 L31.296,50.752 C32.64,50.752 33.664,49.92 33.664,48.512 C33.664,47.104 32.64,46.272 31.296,46.272 L30.016,46.272 L30.016,50.752 Z M38.464,45.696 L41.28,51.328 L40.512,51.328 L40,50.368 L36.8,50.368 L36.288,51.328 L35.52,51.328 L38.272,45.696 L38.464,45.696 L38.464,45.696 Z M38.336,47.04 L37.12,49.664 L37.056,49.728 L39.616,49.728 L39.552,49.664 L38.336,47.04 Z M46.336,45.696 L46.336,46.336 L44.352,46.336 L44.352,51.392 L43.712,51.392 L43.712,46.336 L41.728,46.336 L41.728,45.696 L46.336,45.696 Z M48.256,51.392 L48.896,51.392 L48.896,45.76 L48.256,45.76 L48.256,51.392 Z M51.072,48.576 C51.072,46.912 52.224,45.632 54.016,45.632 C55.808,45.632 56.96,46.912 56.96,48.576 C56.96,50.24 55.808,51.52 54.016,51.52 C52.224,51.52 51.072,50.176 51.072,48.576 M56.256,48.576 C56.256,47.296 55.36,46.208 54.016,46.208 C52.608,46.208 51.776,47.232 51.776,48.576 C51.776,49.856 52.672,50.88 54.016,50.88 C55.36,50.88 56.256,49.856 56.256,48.576 M63.808,51.392 L59.712,47.104 L59.712,51.392 L59.072,51.392 L59.072,45.76 L59.264,45.76 L63.36,49.984 L63.36,45.76 L64,45.76 L64,51.392 L63.808,51.392 Z M5.568,0 L5.568,0.64 L3.584,0.64 L3.584,5.632 L2.944,5.632 L2.944,0.64 L0.96,0.64 L0.96,0 L5.568,0 L5.568,0 Z M11.456,5.632 L11.456,3.2 L8.064,3.2 L8.064,5.632 L7.424,5.632 L7.424,0 L8.064,0 L8.064,2.56 L11.456,2.56 L11.456,0 L12.096,0 L12.096,5.632 L11.456,5.632 L11.456,5.632 Z M15.296,3.136 L15.296,4.992 L18.752,4.992 L18.752,5.632 L14.656,5.632 L14.656,0 L18.752,0 L18.752,0.64 L15.296,0.64 L15.296,2.56 L18.368,2.56 L18.368,3.2 L15.296,3.136 L15.296,3.136 Z" id="Shape"></path>
            </g>
            <g id="Group-8" transform="translate(0.000000, 0.000000)">
                <path d="M37.7410758,34.7799437 C37.6473293,34.9205634 30.4757237,48.2325634 17.3980899,46.0295211 C9.10152651,44.6233239 4.50794904,38.5766761 5.96101946,31.4519437 C7.27347017,25.1709296 13.2732448,21.0929577 19.5073857,21.5148169 C27.2883434,22.0304225 30.4288504,27.5145915 30.7100899,27.8895775 C30.8038364,27.8895775 30.9444561,27.9364507 30.9444561,27.8427042 C30.9444561,12.7026479 9.61713214,13.4526197 3.00800538,24.3272113 C1.64868144,26.5302535 -1.16371293,31.123831 0.523723689,37.8735775 C2.63301946,45.9826479 10.179611,51.4199437 19.1323997,51.4199437 C33.0068786,51.4199437 37.6004561,39.2329014 37.8816955,34.8736901 C37.8348223,34.8268169 37.787949,34.7799437 37.7410758,34.7799437" id="Path"></path>
                <path d="M32.6787659,18.4211831 C27.4758364,12.4214085 22.2260335,6.84349296 19.4605124,0.984338028 C19.2730195,0.609352113 19.1323997,0.281239437 19.0386533,3.90298122e-14 L18.99178,3.90298122e-14 C18.8511603,0.328112676 18.7105406,0.656225352 18.5230476,0.984338028 C17.2105969,3.65611268 13.7888504,9.14028169 8.2578082,14.8588169 C7.32034341,16.0306479 4.88293496,18.6086761 2.9142589,22.0772958 L3.10175186,22.0772958 C4.4610758,20.4836056 9.89837158,14.9525634 18.5230476,14.9525634 C33.0537519,14.9525634 38.6316674,34.3580845 23.2103716,38.951662 C18.3355547,40.4047324 12.33578,40.2172394 7.17972369,33.28 L7.03910397,33.28 C10.179611,57.0916056 49.8812448,40.4047324 32.6787659,18.4211831" id="Path"></path>
            </g>
        </g>
    </g>
</svg>